<svg width="440" height="476" viewBox="0 0 440 476" fill="none" xmlns="http://www.w3.org/2000/svg">
<path fill-rule="evenodd" clip-rule="evenodd" d="M156.199 420.685C130.48 450.543 84.6582 454.005 54.3895 427.932C24.5932 402.267 21.228 356.438 46.9469 326.58C75.1147 293.878 144.619 281.095 186.249 274.849C185.014 318.366 185.592 386.561 156.199 420.685Z" fill="#498CDD"/>
<path fill-rule="evenodd" clip-rule="evenodd" d="M162.199 220.685C136.48 250.543 90.6582 254.005 60.3895 227.932C30.5932 202.267 27.228 156.438 52.9469 126.58C81.1147 93.8782 150.619 81.0951 192.249 74.849C191.014 118.366 191.592 186.561 162.199 220.685Z" fill="#498CDD"/>
<path fill-rule="evenodd" clip-rule="evenodd" d="M354.199 192.685C328.48 222.543 282.658 226.005 252.39 199.932C222.593 174.267 219.228 128.438 244.947 98.5798C273.115 65.8782 342.619 53.0951 384.249 46.849C383.014 90.3664 383.592 158.561 354.199 192.685Z" fill="#498CDD"/>
<path fill-rule="evenodd" clip-rule="evenodd" d="M348.199 382.685C322.48 412.543 276.658 416.005 246.39 389.932C216.593 364.267 213.228 318.438 238.947 288.58C267.115 255.878 336.619 243.095 378.249 236.849C377.014 280.366 377.592 348.561 348.199 382.685Z" fill="#498CDD"/>
</svg>
