<svg width="214" height="200" viewBox="0 0 214 200" fill="none" xmlns="http://www.w3.org/2000/svg">
<rect x="99.1543" width="15" height="200" rx="7.5" fill="#74CAF2"/>
<rect x="138.956" y="10" width="15" height="50" rx="7.5" transform="rotate(60 138.956 10)" fill="#74CAF2"/>
<rect x="66.6543" y="22.9904" width="15" height="50" rx="7.5" transform="rotate(-60 66.6543 22.9904)" fill="#74CAF2"/>
<rect x="74.1543" y="189.99" width="15" height="50" rx="7.5" transform="rotate(-120 74.1543 189.99)" fill="#74CAF2"/>
<rect x="146.456" y="177" width="15" height="50" rx="7.5" transform="rotate(120 146.456 177)" fill="#74CAF2"/>
<rect x="16.25" y="56.409" width="15" height="200" rx="7.5" transform="rotate(-60 16.25 56.409)" fill="#74CAF2"/>
<rect x="44.8115" y="26.94" width="15" height="50" rx="7.5" fill="#74CAF2"/>
<rect x="19.9111" y="96.05" width="15" height="50" rx="7.5" transform="rotate(-120 19.9111 96.05)" fill="#74CAF2"/>
<rect x="168.286" y="173.055" width="15" height="50" rx="7.5" transform="rotate(180 168.286 173.055)" fill="#74CAF2"/>
<rect x="193.187" y="103.945" width="15" height="50" rx="7.5" transform="rotate(60 193.187 103.945)" fill="#74CAF2"/>
<rect x="189.455" y="43.5909" width="15" height="200" rx="7.5" transform="rotate(60 189.455 43.5909)" fill="#74CAF2"/>
<rect x="200.695" y="83.0598" width="15" height="50" rx="7.5" transform="rotate(120 200.695 83.0598)" fill="#74CAF2"/>
<rect x="153.295" y="26.9402" width="15" height="50" rx="7.5" fill="#74CAF2"/>
<rect x="12.4199" y="116.935" width="15" height="50" rx="7.5" transform="rotate(-60 12.4199 116.935)" fill="#74CAF2"/>
<rect x="59.8203" y="173.055" width="15" height="50" rx="7.5" transform="rotate(180 59.8203 173.055)" fill="#74CAF2"/>
</svg>
