<svg width="21" height="20" viewBox="0 0 21 20" fill="none" xmlns="http://www.w3.org/2000/svg">
<path d="M1.58398 10.6667H5.58398C5.58398 9.34057 6.11077 8.0688 7.04845 7.13112C7.98613 6.19344 9.2579 5.66666 10.584 5.66666C11.9101 5.66666 13.1818 6.19344 14.1195 7.13112C15.0572 8.0688 15.584 9.34057 15.584 10.6667H19.584C19.8492 10.6667 20.1036 10.772 20.2911 10.9595C20.4786 11.1471 20.584 11.4014 20.584 11.6667C20.584 11.9319 20.4786 12.1862 20.2911 12.3738C20.1036 12.5613 19.8492 12.6667 19.584 12.6667H1.58398C1.31877 12.6667 1.06441 12.5613 0.876878 12.3738C0.689341 12.1862 0.583984 11.9319 0.583984 11.6667C0.583984 11.4014 0.689341 11.1471 0.876878 10.9595C1.06441 10.772 1.31877 10.6667 1.58398 10.6667ZM13.584 10.6667C13.584 9.87101 13.2679 9.10794 12.7053 8.54534C12.1427 7.98273 11.3796 7.66666 10.584 7.66666C9.78833 7.66666 9.02527 7.98273 8.46266 8.54534C7.90005 9.10794 7.58398 9.87101 7.58398 10.6667H13.584ZM10.584 0.666656L12.974 4.08666C12.234 3.81666 11.424 3.66666 10.584 3.66666C9.74398 3.66666 8.93398 3.81666 8.19398 4.08666L10.584 0.666656ZM1.92398 5.66666L6.08398 5.31666C5.48398 5.82666 4.94398 6.44666 4.52398 7.16666C4.08398 7.90666 3.83398 8.66666 3.69398 9.45666L1.92398 5.66666ZM19.234 5.66666L17.464 9.45666C17.324 8.66666 17.054 7.89666 16.634 7.16666C16.214 6.44666 15.684 5.81666 15.084 5.30666L19.234 5.66666ZM11.294 14.9667L14.404 18.0767C14.794 18.4667 14.794 19.0967 14.404 19.4867C14.014 19.8767 13.384 19.8767 12.994 19.4867L10.584 17.0767L8.17398 19.4867C7.78398 19.8767 7.15398 19.8767 6.76398 19.4867C6.37398 19.0967 6.37398 18.4667 6.76398 18.0767L9.87398 14.9667C10.084 14.7667 10.324 14.6667 10.584 14.6667C10.844 14.6667 11.084 14.7667 11.294 14.9667Z" fill="white"/>
</svg>
